<?xml version="1.0" encoding="utf-8"?>
<!-- Generator: Adobe Illustrator 22.0.1, SVG Export Plug-In . SVG Version: 6.00 Build 0)  -->
<svg version="1.1" id="Layer_1" xmlns="http://www.w3.org/2000/svg" xmlns:xlink="http://www.w3.org/1999/xlink" x="0px" y="0px"
	 viewBox="0 0 426.7 426.7" style="enable-background:new 0 0 426.7 426.7;" xml:space="preserve">
<style type="text/css">
	.st0{fill:#FFFFFF;}
</style>
<path class="st0" d="M213.3,0C95.5,0,0,95.5,0,213.3s95.5,213.3,213.3,213.3s213.3-95.5,213.3-213.3S331.2,0,213.3,0z M303.8,303.8
	L303.8,303.8c-15,15-39.3,15-54.3,0l-36.2-36.2l-36.2,36.2c-15,15-39.3,15-54.3,0l0,0c-15-15-15-39.3,0-54.3l36.2-36.2l-36.2-36.2
	c-15-15-15-39.3,0-54.3l0,0c15-15,39.3-15,54.3,0l36.2,36.2l36.2-36.2c15-15,39.3-15,54.3,0l0,0c15,15,15,39.3,0,54.3l-36.2,36.2
	l36.2,36.2C318.8,264.5,318.8,288.8,303.8,303.8z"/>
</svg>
