<?xml version="1.0" encoding="utf-8"?>
<!-- Generator: Adobe Illustrator 22.0.1, SVG Export Plug-In . SVG Version: 6.00 Build 0)  -->
<svg version="1.1" id="Layer_1" xmlns="http://www.w3.org/2000/svg" xmlns:xlink="http://www.w3.org/1999/xlink" x="0px" y="0px"
	 viewBox="0 0 426.7 426.7" style="enable-background:new 0 0 426.7 426.7;" xml:space="preserve">
<style type="text/css">
	.st0{fill:#FFFFFF;}
</style>
<path class="st0" d="M262.2,5.4C106.5-29.2-29.2,106.6,5.4,262.3c17.6,79.2,79.8,141.4,159,159c155.7,34.5,291.3-101.1,256.8-256.8
	C403.7,85.2,341.5,23,262.2,5.4z M174.2,322.9l-78.3-78.3c-8.6-8.6-8.6-22.7,0-31.3l0,0c8.6-8.6,22.7-8.6,31.3,0l47,47l125.2-125.2
	c8.6-8.6,22.7-8.6,31.3,0l0,0c8.6,8.6,8.6,22.7,0,31.3L174.2,322.9z"/>
</svg>
